<svg width="20" height="20" viewBox="0 0 20 20" fill="none" xmlns="http://www.w3.org/2000/svg">
<g id="Copyright">
<g clip-path="url(#clip0_89_492)">
<g id="Group">
<g id="Group_2">
<g id="Group_3">
<path id="Vector" d="M9.90001 7.61669C10.9667 7.66669 11.2417 8.57502 11.2583 9.00002H12.75C12.6833 7.35002 11.5083 6.34169 9.875 6.34169C8.03334 6.34169 6.66667 7.50002 6.66667 10.1167C6.66667 11.7334 7.44167 13.65 9.86667 13.65C11.7167 13.65 12.7083 12.275 12.7333 11.1917H11.2417C11.2167 11.6834 10.8667 12.3417 9.88334 12.3917C8.79167 12.3584 8.33334 11.5084 8.33334 10.1167C8.33334 7.70835 9.4 7.63335 9.90001 7.61669ZM10 1.66669C5.40001 1.66669 1.66667 5.40002 1.66667 10C1.66667 14.6 5.40001 18.3334 10 18.3334C14.6 18.3334 18.3333 14.6 18.3333 10C18.3333 5.40002 14.6 1.66669 10 1.66669ZM10 16.6667C6.32501 16.6667 3.33334 13.675 3.33334 10C3.33334 6.32502 6.32501 3.33335 10 3.33335C13.675 3.33335 16.6667 6.32502 16.6667 10C16.6667 13.675 13.675 16.6667 10 16.6667Z" fill="white"/>
</g>
</g>
</g>
</g>
<rect x="0.5" y="0.5" width="19" height="19" stroke="#28527A"/>
</g>
<defs>
<clipPath id="clip0_89_492">
<rect width="20" height="20" fill="white"/>
</clipPath>
</defs>
</svg>
