<svg width="25" height="25" viewBox="0 0 25 25" fill="none" xmlns="http://www.w3.org/2000/svg">
<path id="Vector" d="M17.8674 15.3889H16.7381L16.3379 15.0112C17.7387 13.4163 18.582 11.3458 18.582 9.09345C18.582 4.07107 14.4225 0 9.29102 0C4.15952 0 0 4.07107 0 9.09345C0 14.1158 4.15952 18.1869 9.29102 18.1869C11.5923 18.1869 13.7078 17.3615 15.3373 15.9905L15.7233 16.3822V17.4874L22.8702 24.4684L25 22.3839L17.8674 15.3889ZM9.29102 15.3889C5.73185 15.3889 2.85878 12.5769 2.85878 9.09345C2.85878 5.60996 5.73185 2.79798 9.29102 2.79798C12.8502 2.79798 15.7233 5.60996 15.7233 9.09345C15.7233 12.5769 12.8502 15.3889 9.29102 15.3889Z" fill="#28527A"/>
</svg>
